<svg xmlns="http://www.w3.org/2000/svg" xmlns:xlink="http://www.w3.org/1999/xlink" xmlns:ev="http://www.w3.org/2001/xml-events" xmlns:v="http://schemas.microsoft.com/visio/2003/SVGExtensions/" width="400" height="125" xml:space="preserve" color-interpolation-filters="sRGB" style=""><rect id="backgroundrect" width="100%" height="100%" x="0" y="0" fill="none" stroke="none"/>
	<v:documentProperties v:langID="1033" v:viewMarkup="false"/>

	<style type="text/css">
	<![CDATA[
		.st1 {fill:none;stroke:none;stroke-linecap:round;stroke-linejoin:round;stroke-width:0.75}
		.st2 {fill:#000000;font-family:Cinzel Decorative;font-size:4.99999em}
		.st3 {fill:#000000;stroke:none;stroke-linecap:butt;stroke-width:6.12}
		.st4 {fill:none;fill-rule:evenodd;font-size:12px;overflow:visible;stroke-linecap:square;stroke-miterlimit:3}
	]]>
	</style>

	<g v:mID="0" v:index="1" v:groupContext="foregroundPage" style="" class="currentLayer">
		<title>logo</title>
		<v:pageProperties v:drawingScale="1" v:pageScale="1" v:drawingUnits="19" v:shadowOffsetX="9" v:shadowOffsetY="-9"/>
		<g id="group30-1" v:mID="30" v:groupContext="group">
			<title transform="translate(18,-684) ">Sheet.30</title>
			<g id="shape15-2" v:mID="15" v:groupContext="shape">
				<title transform="translate(49.5,0) translate(18,-684) ">Sheet.15</title>
				<desc transform="translate(49.5,0) translate(18,-684) ">VIVACE</desc>
				<v:textBlock v:margins="rect(4,4,4,4)" transform="translate(49.5,0) translate(18,-684) "/>
				<v:textRect cx="126" cy="747" width="252.01" height="90" transform="translate(49.5,0) translate(18,-684) "/>
				<rect x="67.5" y="18" width="252" height="90" class="st1" id="svg_1"/>
				<text x="74.43" y="81" class="st2" v:langID="1033" id="svg_2"><v:paragraph v:horizAlign="1"/><v:tabList/>VIVACE</text>			</g>
			<g id="group16-5" v:mID="16" v:groupContext="group">
				<title transform="translate(0,-18.122800827026367) translate(18,-684) ">Sheet.16</title>
				<g id="group17-6" v:mID="17" v:groupContext="group">
					<title transform="translate(18.740999221801758,0) translate(0,-18.122800827026367) translate(18,-684) ">Sheet.17</title>
					<g id="shape18-7" v:mID="18" v:groupContext="shape">
						<title transform="translate(4.775539875030518,-3.655359983444214) translate(18.740999221801758,0) translate(0,-18.122800827026367) translate(18,-684) ">Sheet.18</title>
						<ellipse cx="44.62300109863281" cy="83.1158218383789" rx="3.1064600944519043" ry="3.1064600944519043" class="st3" id="svg_3"/>
					</g>
					<g id="shape19-9" v:mID="19" v:groupContext="shape">
						<title transform="translate(18.740999221801758,0) translate(0,-18.122800827026367) translate(18,-684) ">Sheet.19</title>
						<path d="M48.250999221801756,69.77719917297361 C46.45099922180176,68.12719917297363 45.06099922180176,62.917199172973596 50.260999221801754,61.00719917297363 C55.22099922180176,59.17719917297359 61.070999221801756,70.68719917297358 51.72099922180176,73.06719917297369 C41.650999221801754,75.62719917297363 37.290999221801755,57.77719917297361 46.790999221801755,51.137199172973624 C71.66099922180176,33.76719917297362 43.96099922180176,18.677199172973587 46.69099922180176,43.27719917297361 C51.31099922180176,77.1671991729736 51.87099922180176,76.75719917297363 52.040999221801755,81.45719917297367 C52.16099922180176,84.72719917297366 50.10099922180176,87.31719917297369 46.63099922180176,86.58719917297367 C45.510999221801754,86.34719917297366 46.87099922180176,85.33719917297367 46.820999221801756,85.30719917297358 C45.72099922180176,84.75719917297363 44.41099922180176,86.22719917297366 43.53099922180176,86.0371991729736 C50.47099922180176,89.87719917297363 52.92099922180176,84.96719917297366 52.72099922180176,81.2871991729736 C52.58099922180176,78.73719917297365 48.640999221801756,43.44719917297368 48.640999221801756,42.407199172973606 C48.640999221801756,31.807199172973583 55.010999221801754,33.08719917297367 54.46099922180176,38.02719917297361 C53.92099922180176,42.957199172973674 42.59099922180176,51.137199172973624 39.66099922180176,57.167199172973596 C36.74099922180176,63.19719917297368 37.36099922180176,71.20719917297367 46.42099922180176,74.1571991729736 C55.400999221801754,77.08719917297367 63.81099922180176,66.85719917297365 59.42099922180176,61.36719917297364 C52.790999221801755,53.07719917297368 40.24099922180176,63.56719917297369 48.250999221801756,69.77719917297361 z" class="st3" id="svg_4"/>
					</g>
				</g>
				<g id="shape20-11" v:mID="20" v:groupContext="shape">
					<title transform="translate(8.844770431518555,-49.05289840698242) translate(0,-18.122800827026367) translate(18,-684) ">Sheet.20</title>
					<path d="M41.21477043151855,40.82430076599121 L27.954770431518554,40.82430076599121 C27.344770431518555,40.82430076599121 26.844770431518555,40.3343007659912 26.844770431518555,39.7143007659912 C26.844770431518555,39.104300765991184 27.344770431518555,38.614300765991175 27.954770431518554,38.614300765991175 L41.21477043151855,38.614300765991175 C41.82477043151856,38.614300765991175 42.32477043151856,39.104300765991184 42.32477043151856,39.7143007659912 C42.32477043151856,40.3343007659912 41.82477043151856,40.82430076599121 41.21477043151855,40.82430076599121 z" class="st3" id="svg_5"/>
				</g>
				<g id="shape21-13" v:mID="21" v:groupContext="shape">
					<title transform="translate(42.012298583984375,-49.05289840698242) translate(0,-18.122800827026367) translate(18,-684) ">Sheet.21</title>
					<path d="M72.17229858398437,40.82430076599121 L61.122298583984374,40.82430076599121 C60.512298583984375,40.82430076599121 60.012298583984375,40.3343007659912 60.012298583984375,39.7143007659912 C60.012298583984375,39.104300765991184 60.512298583984375,38.614300765991175 61.122298583984374,38.614300765991175 L72.17229858398437,38.614300765991175 C72.78229858398437,38.614300765991175 73.28229858398437,39.104300765991184 73.28229858398437,39.7143007659912 C73.28229858398437,40.3343007659912 72.78229858398437,40.82430076599121 72.17229858398437,40.82430076599121 z" class="st3" id="svg_6"/>
				</g>
				<g id="shape22-15" v:mID="22" v:groupContext="shape">
					<title transform="translate(3.3165900707244873,-39.10319900512695) translate(0,-18.122800827026367) translate(18,-684) ">Sheet.22</title>
					<path d="M37.896590070724486,50.77400016784668 L22.426590070724487,50.77400016784668 C21.816590070724487,50.77400016784668 21.316590070724487,50.28400016784667 21.316590070724487,49.664000167846666 C21.316590070724487,49.05400016784665 21.816590070724487,48.56400016784664 22.426590070724487,48.56400016784664 L37.896590070724486,48.56400016784664 C38.506590070724485,48.56400016784664 39.006590070724485,49.05400016784665 39.006590070724485,49.664000167846666 C39.006590070724485,50.28400016784667 38.506590070724485,50.77400016784668 37.896590070724486,50.77400016784668 z" class="st3" id="svg_7"/>
				</g>
				<g id="shape23-17" v:mID="23" v:groupContext="shape">
					<title transform="translate(35.37910079956055,-39.10319900512695) translate(0,-18.122800827026367) translate(18,-684) ">Sheet.23</title>
					<path d="M77.69910079956054,50.77400016784668 L54.489100799560546,50.77400016784668 C53.87910079956055,50.77400016784668 53.37910079956055,50.28400016784667 53.37910079956055,49.664000167846666 C53.37910079956055,49.05400016784665 53.87910079956055,48.56400016784664 54.489100799560546,48.56400016784664 L77.69910079956054,48.56400016784664 C78.30910079956055,48.56400016784664 78.80910079956055,49.05400016784665 78.80910079956055,49.664000167846666 C78.80910079956055,50.28400016784667 78.30910079956055,50.77400016784668 77.69910079956054,50.77400016784668 z" class="st3" id="svg_8"/>
				</g>
				<g id="shape24-19" v:mID="24" v:groupContext="shape">
					<title transform="translate(0,-29.152599334716797) translate(0,-18.122800827026367) translate(18,-684) ">Sheet.24</title>
					<path d="M32.37,60.724599838256836 L19.11,60.724599838256836 C18.5,60.724599838256836 18,60.23459983825683 18,59.61459983825682 C18,59.00459983825681 18.5,58.5145998382568 19.11,58.5145998382568 L32.37,58.5145998382568 C32.980000000000004,58.5145998382568 33.480000000000004,59.00459983825681 33.480000000000004,59.61459983825682 C33.480000000000004,60.23459983825683 32.980000000000004,60.724599838256836 32.37,60.724599838256836 z" class="st3" id="svg_9"/>
				</g>
				<g id="shape25-21" v:mID="25" v:groupContext="shape">
					<title transform="translate(45.3297004699707,-29.152599334716797) translate(0,-18.122800827026367) translate(18,-684) ">Sheet.25</title>
					<path d="M81.0197004699707,60.724599838256836 L64.4397004699707,60.724599838256836 C63.8297004699707,60.724599838256836 63.3297004699707,60.23459983825683 63.3297004699707,59.61459983825682 C63.3297004699707,59.00459983825681 63.8297004699707,58.5145998382568 64.4397004699707,58.5145998382568 L81.0197004699707,58.5145998382568 C81.6297004699707,58.5145998382568 82.1297004699707,59.00459983825681 82.1297004699707,59.61459983825682 C82.1297004699707,60.23459983825683 81.6297004699707,60.724599838256836 81.0197004699707,60.724599838256836 z" class="st3" id="svg_10"/>
				</g>
				<g id="shape26-23" v:mID="26" v:groupContext="shape">
					<title transform="translate(4.422389984130859,-19.20199966430664) translate(0,-18.122800827026367) translate(18,-684) ">Sheet.26</title>
					<path d="M34.582389984130856,70.67519950866699 L23.53238998413086,70.67519950866699 C22.92238998413086,70.67519950866699 22.42238998413086,70.18519950866698 22.42238998413086,69.56519950866698 C22.42238998413086,68.95519950866696 22.92238998413086,68.46519950866696 23.53238998413086,68.46519950866696 L34.582389984130856,68.46519950866696 C35.192389984130855,68.46519950866696 35.692389984130855,68.95519950866696 35.692389984130855,69.56519950866698 C35.692389984130855,70.18519950866698 35.192389984130855,70.67519950866699 34.582389984130856,70.67519950866699 z" class="st3" id="svg_11"/>
				</g>
				<g id="shape27-25" v:mID="27" v:groupContext="shape">
					<title transform="translate(45.3297004699707,-19.20199966430664) translate(0,-18.122800827026367) translate(18,-684) ">Sheet.27</title>
					<path d="M77.69970046997071,70.67519950866699 L64.4397004699707,70.67519950866699 C63.8297004699707,70.67519950866699 63.3297004699707,70.18519950866698 63.3297004699707,69.56519950866698 C63.3297004699707,68.95519950866696 63.8297004699707,68.46519950866696 64.4397004699707,68.46519950866696 L77.69970046997071,68.46519950866696 C78.3097004699707,68.46519950866696 78.8097004699707,68.95519950866696 78.8097004699707,69.56519950866698 C78.8097004699707,70.18519950866698 78.3097004699707,70.67519950866699 77.69970046997071,70.67519950866699 z" class="st3" id="svg_12"/>
				</g>
				<g id="shape28-27" v:mID="28" v:groupContext="shape">
					<title transform="translate(9.950570106506348,-9.251460075378418) translate(0,-18.122800827026367) translate(18,-684) ">Sheet.28</title>
					<path d="M36.79057010650635,80.62573909759521 L29.060570106506347,80.62573909759521 C28.450570106506348,80.62573909759521 27.950570106506348,80.1357390975952 27.950570106506348,79.5157390975952 C27.950570106506348,78.90573909759519 28.450570106506348,78.41573909759518 29.060570106506347,78.41573909759518 L36.79057010650635,78.41573909759518 C37.41057010650635,78.41573909759518 37.90057010650635,78.90573909759519 37.90057010650635,79.5157390975952 C37.90057010650635,80.1357390975952 37.41057010650635,80.62573909759521 36.79057010650635,80.62573909759521 z" class="st3" id="svg_13"/>
				</g>
				<g id="shape29-29" v:mID="29" v:groupContext="shape">
					<title transform="translate(39.80149841308594,-9.251460075378418) translate(0,-18.122800827026367) translate(18,-684) ">Sheet.29</title>
					<path d="M71.07149841308593,80.62573909759521 L58.91149841308594,80.62573909759521 C58.30149841308594,80.62573909759521 57.80149841308594,80.1357390975952 57.80149841308594,79.5157390975952 C57.80149841308594,78.90573909759519 58.30149841308594,78.41573909759518 58.91149841308594,78.41573909759518 L71.07149841308593,78.41573909759518 C71.68149841308593,78.41573909759518 72.17149841308594,78.90573909759519 72.17149841308594,79.5157390975952 C72.17149841308594,80.1357390975952 71.68149841308593,80.62573909759521 71.07149841308593,80.62573909759521 z" class="st3" id="svg_14"/>
				</g>
			</g>
		</g>
	</g>
</svg>